PathFileType	4	(X/Y/Z)	C:/Users/opensim2020/Desktop/walking_exp_matlab/subject06_walking16_straight_01.trc																																																																																																																																																							
DataRate	CameraRate	NumFrames	NumMarkers	Units	OrigDataRate	OrigDataStartFrame	OrigNumFrames																																																																																																																																																			
100	100	7	51	mm	100	1162	333																																																																																																																																																			
Frame#	Time	LFHD			RFHD			LBHD			RBHD			C7			T10			CLAV			STRN			RBAK			LSHO			LUPA			LELB			LFRM			LWRA			LWRB			LFIN			RSHO			RUPA			RELB			RFRM			RWRA			RWRB			RFIN			LASI			RASI			LPSI			RPSI			LTHI			LKNE			LTIB			LANK			LHEE			LTOE			RTHI			RKNE			RTIB			RANK			RHEE			RTOE			*39			*40			*41			*42			*43			*44			*45			*46			*47			*48			*49			*50		
		X1	Y1	Z1	X2	Y2	Z2	X3	Y3	Z3	X4	Y4	Z4	X5	Y5	Z5	X6	Y6	Z6	X7	Y7	Z7	X8	Y8	Z8	X9	Y9	Z9	X10	Y10	Z10	X11	Y11	Z11	X12	Y12	Z12	X13	Y13	Z13	X14	Y14	Z14	X15	Y15	Z15	X16	Y16	Z16	X17	Y17	Z17	X18	Y18	Z18	X19	Y19	Z19	X20	Y20	Z20	X21	Y21	Z21	X22	Y22	Z22	X23	Y23	Z23	X24	Y24	Z24	X25	Y25	Z25	X26	Y26	Z26	X27	Y27	Z27	X28	Y28	Z28	X29	Y29	Z29	X30	Y30	Z30	X31	Y31	Z31	X32	Y32	Z32	X33	Y33	Z33	X34	Y34	Z34	X35	Y35	Z35	X36	Y36	Z36	X37	Y37	Z37	X38	Y38	Z38	X39	Y39	Z39	X40	Y40	Z40	X41	Y41	Z41	X42	Y42	Z42	X43	Y43	Z43	X44	Y44	Z44	X45	Y45	Z45	X46	Y46	Z46	X47	Y47	Z47	X48	Y48	Z48	X49	Y49	Z49	X50	Y50	Z50	X51	Y51	Z51
																																																																																																																																																										
292	2.91	840.34521	1669.8186	-1064.06592	822.15826	1648.1908	-935.29871	714.12189	1606.95544	-1089.26233	696.86578	1590.27417	-962.03436	712.08441	1450.70959	-1033.32141	666.9856	1126.14014	-1027.3761	823.73395	1373.41235	-1030.03162	859.85767	1197.56262	-1043.83008	637.98267	1282.70227	-956.82983	775.48987	1408.79224	-1190.86279	807.88776	1208.16589	-1255.81738	829.24615	1095.94897	-1260.84009	919.52472	973.93732	-1261.73718	1022.47681	912.78589	-1199.15906	978.23242	872.42621	-1236.39941	1055.00317	826.40393	-1223.3916	779.03357	1400.40405	-869.35492	732.67877	1199.59924	-791.49457	734.65717	1077.39917	-785.44635	734.35718	956.60101	-770.92426	770.21503	809.72809	-803.80078	717.65729	818.80548	-763.26196	743.32898	737.69421	-763.20001	828.71851	956.76288	-1147.13074	846.15027	968.37091	-927.55957	675.75153	993.10352	-1107.39844	695.55432	996.92603	-940.92938	716.16394	644.59412	-1189.03918	688.6015	482.2178	-1166.05615	522.28455	285.38925	-1142.83044	429.37296	142.65233	-1092.77478	394.07831	151.92725	-1042.7345	528.6344	35.76912	-1100.28528	815.64154	635.8595	-861.19006	839.17242	514.49591	-889.74274	840.19556	248.71794	-893.92035	868.62439	64.51476	-942.46948	836.74585	40.52355	-992.19202	1027.02502	39.29634	-939.17316	729.96521	1696.36084	-1018.69928	NaN	NaN	NaN	NaN	NaN	NaN	NaN	NaN	NaN	NaN	NaN	NaN	NaN	NaN	NaN	NaN	NaN	NaN	NaN	NaN	NaN	NaN	NaN	NaN	NaN	NaN	NaN	NaN	NaN	NaN	NaN	NaN	NaN
293	2.92	847.70343	1671.10962	-1062.36292	829.58148	1649.33691	-933.63794	721.61652	1607.96521	-1087.63464	704.38446	1591.18347	-960.43579	719.93823	1451.57837	-1031.57129	675.25623	1127.03931	-1025.52722	831.67725	1374.599	-1028.52905	868.16394	1198.78027	-1042.17334	646.26721	1283.84705	-954.53967	782.83661	1409.79883	-1189.33105	814.08124	1209.0863	-1254.49451	834.64081	1096.86707	-1259.85156	923.04633	973.4082	-1261.39392	1025.52283	910.47162	-1199.69177	980.78326	871.13275	-1237.40381	1056.79639	823.82825	-1224.65186	787.2804	1401.68689	-867.8302	741.15961	1200.80823	-790.05493	743.74689	1078.56201	-783.84229	743.98389	957.78668	-769.54712	780.7099	811.16718	-802.73389	728.13715	819.78204	-762.27356	754.05377	738.83728	-762.27203	837.02649	957.92334	-1145.53796	854.38013	968.98401	-926.02484	683.90869	994.15527	-1105.89771	703.39008	998.00891	-939.36786	726.14081	645.28192	-1188.63538	700.30963	482.6713	-1166.6521	531.03461	288.82254	-1142.43958	435.94373	147.83759	-1092.28308	401.78314	158.30615	-1041.67883	530.23633	36.19835	-1099.88733	821.24353	636.22742	-860.54089	843.68781	514.59235	-889.15387	841.73077	248.73111	-893.89081	868.99719	64.56426	-942.72882	836.88306	40.7672	-992.43335	1027.68298	38.46115	-939.46564	737.25049	1697.36133	-1017.02435	NaN	NaN	NaN	NaN	NaN	NaN	NaN	NaN	NaN	NaN	NaN	NaN	NaN	NaN	NaN	NaN	NaN	NaN	NaN	NaN	NaN	NaN	NaN	NaN	NaN	NaN	NaN	NaN	NaN	NaN	NaN	NaN	NaN
294	2.93	854.97675	1672.25195	-1060.81494	836.90765	1650.43555	-932.09125	729.09436	1608.80029	-1086.10596	711.92102	1591.97522	-958.99573	727.75616	1452.44739	-1029.88525	683.57263	1127.75623	-1023.77887	839.54797	1375.65588	-1027.01953	876.25983	1199.82727	-1040.55493	654.48688	1284.29858	-952.70123	790.19427	1410.79211	-1187.90723	819.90155	1209.71936	-1253.39075	839.97186	1097.47937	-1258.82922	926.85986	973.04913	-1261.68994	1028.38867	907.91516	-1200.49097	983.01367	869.62585	-1238.47644	1058.31738	821.01392	-1226.18494	795.41632	1402.77991	-866.26514	749.82495	1201.86426	-788.3363	752.7912	1079.5415	-782.11615	753.68347	958.69745	-768.06219	791.23975	812.37683	-801.51807	738.59998	820.65289	-761.1037	764.92456	739.78699	-761.30756	845.19092	958.99957	-1143.95496	862.59387	969.55811	-924.57074	691.95703	994.94592	-1104.49011	711.35107	998.90637	-937.86517	736.29327	645.95563	-1188.24597	712.25519	483.04645	-1167.14233	539.87122	292.01404	-1141.96204	442.9241	153.05565	-1092.00964	409.94717	164.63332	-1040.79639	532.11957	36.91621	-1099.49683	827.14362	636.74377	-860.10223	848.01678	514.76324	-888.30469	843.06238	248.72966	-893.71521	869.30682	64.48847	-943.04712	837.08118	40.84607	-992.50763	1028.05566	37.45039	-939.98505	744.45471	1698.22974	-1015.46576	NaN	NaN	NaN	NaN	NaN	NaN	NaN	NaN	NaN	NaN	NaN	NaN	NaN	NaN	NaN	NaN	NaN	NaN	NaN	NaN	NaN	NaN	NaN	NaN	NaN	NaN	NaN	NaN	NaN	NaN	NaN	NaN	NaN
295	2.94	862.19556	1673.26648	-1059.30554	844.10199	1651.44873	-930.60907	736.4715	1609.453	-1084.70081	719.20825	1592.64026	-957.49268	735.57886	1453.23291	-1028.27136	691.54492	1128.45483	-1022.05573	847.32825	1376.56287	-1025.47266	884.22565	1200.70752	-1038.94141	662.46838	1284.97314	-950.72687	797.50531	1411.47986	-1186.51123	825.44739	1210.12244	-1252.40845	845.06146	1097.88879	-1258.09973	929.69354	971.96539	-1261.25549	1030.93103	905.09119	-1201.45667	984.88177	867.79065	-1239.60327	1059.42407	817.95343	-1227.90198	803.45782	1403.68298	-864.72101	758.43439	1202.6864	-786.67389	761.86908	1080.29565	-780.44208	763.49664	959.46558	-766.51691	801.86865	813.44202	-800.25262	749.2489	821.27814	-759.79962	776.3064	740.62292	-760.3335	855.56763	961.28601	-1140.81665	870.48639	969.867	-922.95917	699.9472	995.59918	-1103.11914	719.29913	999.6261	-936.5069	746.59589	646.46881	-1187.8894	724.427	483.31137	-1167.54944	549.83667	295.4971	-1141.82068	450.33401	158.24678	-1091.92834	418.43161	171.10027	-1040.45227	534.26611	38.42096	-1099.41248	833.51721	637.38184	-859.25659	852.36749	514.94647	-887.25104	844.52075	248.84099	-893.30255	869.672	64.68157	-943.06403	837.1983	40.95539	-992.56006	1028.38818	36.69682	-940.46765	751.56659	1698.9541	-1014.08118	NaN	NaN	NaN	NaN	NaN	NaN	NaN	NaN	NaN	NaN	NaN	NaN	NaN	NaN	NaN	NaN	NaN	NaN	NaN	NaN	NaN	NaN	NaN	NaN	NaN	NaN	NaN	NaN	NaN	NaN	NaN	NaN	NaN
296	2.95	869.34149	1674.12952	-1057.94287	851.22644	1652.38379	-929.19995	743.80157	1609.98389	-1083.30029	726.46869	1593.27014	-956.14587	743.19659	1453.92639	-1026.63464	699.47162	1128.95789	-1020.41199	854.96393	1377.29944	-1023.97021	892.09064	1201.43091	-1037.38818	670.36792	1285.31458	-948.8609	804.62195	1411.901	-1185.10864	830.86151	1210.3158	-1251.52283	849.85236	1097.99963	-1257.33521	932.73926	970.89789	-1261.4364	1033.21631	902.01624	-1202.6582	986.36664	865.76398	-1240.83142	1060.19336	814.64172	-1229.91492	811.29614	1404.3916	-863.14905	766.98859	1203.26001	-784.98108	771.03992	1080.88879	-778.75043	773.3551	960.06116	-764.9834	812.69977	814.33691	-798.85822	759.95032	821.80865	-758.27911	787.36243	741.19531	-759.07373	863.06335	962.10693	-1139.22876	878.46838	970.34503	-921.44958	707.78503	995.96997	-1101.95251	726.922	1000.26367	-935.15955	757.05054	646.84857	-1187.52161	736.87732	483.37341	-1167.75244	559.87683	298.66333	-1141.50623	457.88641	163.44247	-1092.01746	426.79391	177.3838	-1040.32031	537.28595	40.55287	-1099.15869	839.70209	637.85345	-858.54205	856.76343	515.16278	-886.17096	846.34332	248.98996	-892.72485	869.99963	64.7186	-943.07953	837.17072	41.13289	-992.55591	1028.76721	35.99423	-940.89923	758.64948	1699.58374	-1012.7674	NaN	NaN	NaN	NaN	NaN	NaN	NaN	NaN	NaN	NaN	NaN	NaN	NaN	NaN	NaN	NaN	NaN	NaN	NaN	NaN	NaN	NaN	NaN	NaN	NaN	NaN	NaN	NaN	NaN	NaN	NaN	NaN	NaN
297	2.96	876.50848	1674.88464	-1056.66553	858.34155	1653.21216	-927.89838	751.09717	1610.41174	-1082.02649	733.74713	1593.75903	-954.85394	750.73364	1454.52673	-1025.0155	707.59235	1129.31384	-1018.68237	862.51819	1377.96045	-1022.50275	899.76312	1202.03345	-1035.84802	678.05365	1285.92212	-946.86273	811.8407	1412.37732	-1183.79602	836.28333	1210.33167	-1250.61682	854.59369	1097.98438	-1256.65295	935.81293	969.78955	-1262.09705	1035.22278	898.76257	-1204.08435	987.51862	863.53564	-1242.1521	1060.58337	811.21893	-1232.11365	819.03766	1405.03564	-861.64276	775.58124	1203.75	-783.33588	780.18976	1081.38611	-777.05756	783.35632	960.55042	-763.38855	823.58899	815.17773	-797.50549	770.92108	822.18652	-756.92035	798.85962	741.76086	-757.76733	871.13489	962.82245	-1138.20276	886.11865	970.65118	-919.90009	715.5434	996.21222	-1101.0321	734.50623	1000.79352	-934.05164	767.72205	647.03546	-1187.06506	749.65045	483.37512	-1167.79541	570.4314	301.66956	-1141.34265	465.84351	168.504	-1092.01709	435.3168	183.22481	-1040.28857	542.21576	43.80783	-1099.43335	845.7124	638.34814	-857.86536	861.31677	515.40149	-885.16797	848.48944	249.18085	-892.06207	870.3335	64.75021	-943.03925	837.93256	40.74197	-992.29266	1029.15332	35.38547	-941.23694	765.68225	1700.14087	-1011.57147	NaN	NaN	NaN	NaN	NaN	NaN	NaN	NaN	NaN	NaN	NaN	NaN	NaN	NaN	NaN	NaN	NaN	NaN	NaN	NaN	NaN	NaN	NaN	NaN	NaN	NaN	NaN	NaN	NaN	NaN	NaN	NaN	NaN
298	2.97	883.58356	1675.59717	-1055.36377	865.37579	1653.97827	-926.6308	758.33124	1610.76721	-1080.79272	740.94788	1594.23254	-953.58539	758.28265	1455.10486	-1023.56207	714.92767	1129.97717	-1017.34442	869.93622	1378.55005	-1021.10748	907.25732	1202.57129	-1034.40283	685.54761	1286.48364	-944.98792	818.9873	1412.67798	-1182.51025	841.70605	1210.2832	-1249.71045	859.00677	1097.82178	-1255.99414	938.10724	968.36121	-1262.17578	1036.94641	895.42938	-1205.5863	988.23303	861.15131	-1243.5437	1060.49683	807.60028	-1234.5061	826.57599	1405.58423	-860.14221	784.18512	1204.10791	-781.65356	789.43073	1081.76196	-775.43701	793.388	960.95636	-761.78418	834.4859	815.89349	-796.13092	781.98328	822.51617	-755.35919	810.41327	742.3252	-756.38953	878.83508	963.43915	-1136.93982	893.83722	970.97479	-918.48035	723.21295	996.42175	-1100.09766	741.88361	1001.25739	-932.89111	778.37274	647.07892	-1186.54614	762.64532	483.14706	-1167.44336	581.38696	304.34885	-1141.21753	474.50909	173.18398	-1091.87219	444.20844	188.16132	-1039.99951	549.20013	47.58426	-1100.50293	851.54718	638.71234	-857.13275	865.87805	515.52869	-884.00537	850.52954	249.21219	-891.42261	870.62573	64.73711	-942.97485	837.92584	40.81724	-992.12067	1029.34924	34.92774	-941.534	772.6358	1700.62476	-1010.43713	NaN	NaN	NaN	NaN	NaN	NaN	NaN	NaN	NaN	NaN	NaN	NaN	NaN	NaN	NaN	NaN	NaN	NaN	NaN	NaN	NaN	NaN	NaN	NaN	NaN	NaN	NaN	NaN	NaN	NaN	NaN	NaN	NaN
